<?xml version="1.0" encoding="utf-8"?>
<!-- Generator: Adobe Illustrator 14.0.0, SVG Export Plug-In . SVG Version: 6.00 Build 43363)  -->
<!DOCTYPE svg PUBLIC "-//W3C//DTD SVG 1.1//EN" "http://www.w3.org/Graphics/SVG/1.1/DTD/svg11.dtd">
<svg version="1.1" id="Layer_1" xmlns="http://www.w3.org/2000/svg" xmlns:xlink="http://www.w3.org/1999/xlink" x="0px" y="0px"
	 width="238.97px" height="238.968px" viewBox="0 0 238.97 238.968" enable-background="new 0 0 238.97 238.968"
	 xml:space="preserve">
<path fill="#2895D2" d="M238.97,119.486c0,65.986-53.5,119.482-119.483,119.482C53.494,238.968,0,185.472,0,119.486
	C0,53.498,53.494,0,119.487,0C185.47,0,238.97,53.498,238.97,119.486"/>
<path fill="#D2D4D8" d="M70.903,150.63c17.929-5.377,65.494-16.917,94.356,1.51c0.084,0.051,0.162,0.103,0.246,0.156
	c-0.789-8.59-1.208-25.461-1.208-25.461s-1.105-12.134,0.158-15.136c10.435-3.162,23.61-2.689,25.032-15.172
	c1.423-3.951,3.319-9.167-0.791-16.911c-0.789-8.217,5.375-17.068-14.38-27.024c-5.689-6.797-13.908-21.497-44.093-24.972
	c-10.275-3.16-33.823-2.846-40.617,2.212c-6.798,5.06-13.118,12.17-17.701,12.801c-3.793-1.42-12.486,3.162-12.17,17.702
	c0.317,14.541-9.639,21.176,10.591,34.611C71.452,103.211,71.488,137.91,70.903,150.63"/>
<path fill="#FFFFFF" d="M70.903,150.63c17.929-5.377,65.494-16.917,94.356,1.51c0.084,0.051,0.162,0.103,0.246,0.156
	c-0.789-8.59-1.208-25.461-1.208-25.461s-1.105-12.134,0.158-15.136c10.435-3.162,23.61-2.689,25.032-15.172
	c1.423-3.951,3.319-9.167-0.791-16.911c-0.789-8.217,5.375-17.068-14.38-27.024c-5.689-6.797-13.908-21.497-44.093-24.972
	c-10.275-3.16-33.823-2.846-40.617,2.212c-6.798,5.06-13.118,12.17-17.701,12.801c-3.793-1.42-12.486,3.162-12.17,17.702
	c0.317,14.541-9.639,21.176,10.591,34.611C71.452,103.211,71.488,137.91,70.903,150.63"/>
<g opacity="0.4">
	<g>
		<rect x="62.111" y="55.759" fill="none" width="11.411" height="39.601"/>
		<path fill="#959AA0" d="M73.522,88.125C69.79,85,67.622,83.363,66.781,78.029c-0.838-5.332,2.24-16.735,1.992-22.27
			c-1.534,2.495-0.883,3.679-2.74,8.965c-1.855,5.278-6.304,16.224-2.305,21.934c3.998,5.714,6.865,8.702,6.865,8.702
			S71.547,90.813,73.522,88.125"/>
	</g>
</g>
<g opacity="0.4">
	<g>
		<rect x="121.958" y="45.591" fill="none" width="69.229" height="106.677"/>
		<path fill="#959AA0" d="M133.269,90.459c-0.344,5.683-3.423,41.155-3.605,51.777c12.78,0.607,25.366,3.37,35.596,9.904
			c0.069,0.043,0.133,0.084,0.204,0.128c-0.796-8.578-1.166-25.434-1.166-25.434s-1.105-12.133,0.158-15.135
			c10.435-3.162,23.61-2.689,25.033-15.172c1.422-3.951,3.317-9.167-0.792-16.911c-0.789-8.217,5.375-17.068-14.38-27.024
			c-1.549-1.85-3.287-4.286-5.599-6.918c-0.823-0.132-1.431-0.116-1.71,0.124c0,0,2.341,5.268,0.586,11.313
			c-1.756,6.045-12.679,24.574-23.6,21.454c-7.8-2.341-16.771-7.411-22.036-4.875C127.224,78.37,133.66,84.026,133.269,90.459
			 M188.268,86.952c3.506,2.926-0.392,7.213-0.783,9.749c-0.778-1.364-12.286-0.779-21.454-1.56
			c0.586-0.781,3.514-0.976,10.922-1.365C184.365,93.386,187.817,86.576,188.268,86.952 M164.035,83.245
			c0.977-4.096,12.679-8.97,15.015-13.261c2.344-4.292,6.047-8.386,6.047-8.386s2.341,6.047,2.729,8.969
			c0.395,2.927-0.191,6.24-1.557,10.141c-2.925,3.12-25.938,11.702-25.938,11.702s-0.782-2.144-3.316-4.094
			C158.574,88.703,163.061,87.342,164.035,83.245"/>
	</g>
</g>
<path fill="#000100" d="M172.974,157.472c-1.32-0.124-6.114-0.843-9.174-1.022c-3.057-0.177-13.369-1.08-22.298-0.539
	c-8.935,0.539-9.472,0.779-11.63,1.801c-2.16,1.016-6.715,2.154-8.933,2.096c-0.446-0.014-1.745-0.014-2.188,0
	c-2.222,0.058-6.775-1.08-8.934-2.096c-2.158-1.022-2.696-1.262-11.63-1.801c-8.93-0.541-19.242,0.362-22.299,0.539
	c-3.057,0.179-7.853,0.898-9.171,1.022c-0.482,0.779,0.419,5.873,0.717,6.35c2.519,0.243,2.759,1.8,2.938,2.279
	c0.12,3.539,1.235,10.802,2.015,14.161c0.778,3.359,3.657,7.253,6.834,8.453c3.178,1.198,16.748,1.847,23.524,0.349
	c6.776-1.502,12.528-18.048,13.364-20.382c0.842-2.339,3.48-1.198,3.48-1.198h0.511c0,0,2.635-1.141,3.479,1.198
	c0.836,2.334,6.588,19.451,13.365,20.95c6.775,1.499,20.347,0.567,23.524-0.631c3.177-1.197,6.052-5.238,6.831-8.593
	c0.783-3.358,1.895-10.696,2.018-14.235c0.177-0.482,0.419-2.076,2.937-2.313C172.551,163.379,173.454,158.251,172.974,157.472
	 M109.397,174.964c-3.297,6.713-5.454,10.847-8.811,11.629c-3.359,0.777-16.87,0.67-18.848-0.046
	c-1.98-0.722-5.633-2.343-6.474-7.798c-0.84-5.453-1.965-13.895-0.166-15.872c1.797-1.98,4.386-3.753,19.551-3.812
	c0,0,10.911-0.48,13.73,3.176C111.197,165.899,112.696,168.249,109.397,174.964 M164.424,178.749
	c-0.838,5.455-4.496,7.076-6.476,7.798c-1.977,0.716-15.486,0.823-18.847,0.046c-3.356-0.782-5.517-4.916-8.813-11.629
	c-3.297-6.715-1.799-9.065,1.022-12.723c2.819-3.656,13.729-3.176,13.729-3.176c15.166,0.059,17.755,1.832,19.553,3.812
	C166.39,164.854,165.263,173.296,164.424,178.749"/>
</svg>
