<?xml version="1.0" encoding="UTF-8"?>
<svg width="358px" height="128px" viewBox="0 0 358 128" version="1.1" xmlns="http://www.w3.org/2000/svg" xmlns:xlink="http://www.w3.org/1999/xlink">
    <!-- Generator: Sketch 43.2 (39069) - http://www.bohemiancoding.com/sketch -->
    <title>group</title>
    <desc>Created with Sketch.</desc>
    <defs></defs>
    <g id="Page-1" stroke="none" stroke-width="1" fill="none" fill-rule="evenodd">
        <g id="group" fill-rule="nonzero" fill="#FFFFFF">
            <path d="M48.543,21.895 C49.505,26.669 52.749,27.291 57.296,26.377 C60.851,25.667 64.534,21.585 63.533,16.588 C61.128,4.588 48.266,5.554 38.276,7.561 C30.952,9.036 17.782,14.79 17.639,31.335 L17.038,97.405 C7.132,102.747 -0.881,107.708 1.167,117.918 C2.622,125.139 9.904,128.638 16.677,127.282 C24.004,125.816 32.949,120.899 33.1,104.359 L32.81,41.858 L43.113,39.603 L43.113,34.979 L32.81,37.233 L33.328,27.754 C33.417,21.256 37.783,14.315 44.787,12.906 C47.887,12.281 50.961,12.609 51.646,15.47 C51.296,15.43 50.909,15.523 50.687,15.576 C48.685,15.972 47.975,19.011 48.543,21.895 L48.543,21.895 Z M16.954,107.938 C16.938,114.755 14.358,117.47 12.143,117.917 C9.696,118.404 7.275,116.694 6.963,115.136 C5.756,109.134 10.469,104.965 16.992,101.227 L16.954,107.938 Z" id="Shape"></path>
            <path d="M357.234,20.437 L340.344,19.542 L334.103,34.267 L330.426,33.579 L328.695,37.867 L332.363,38.545 L321.594,64.25 L320.872,63.062 C319.604,64.302 316.885,66.535 313.926,68.741 C314.085,68.311 314.134,67.745 314.192,67.178 C315.561,53.659 308.656,47.613 310.711,27.21 L298.18,28.445 C293.52,34.013 288.688,43.537 279.559,42.633 C278.655,42.539 277.986,42.354 277.459,41.959 C278.057,33.826 276.063,25.313 265.472,24.245 C249.92,22.686 234.629,33.206 231.838,60.927 C231.582,63.43 231.612,65.591 231.794,67.575 C230.381,68.594 228.941,69.299 227.462,69.289 C223.037,69.223 221.815,67.514 221.85,65.023 C221.855,63.889 222.103,62.649 222.457,61.409 L224.122,54.969 C224.361,54.066 224.499,53.047 224.499,52.143 C224.592,44.662 217.655,38.008 211.547,37.933 C210.52,37.924 209.611,38.017 208.588,38.235 L231.776,23.01 L219.542,22.864 C219.542,22.749 206.045,32.88 197.47,39.577 L206.466,0.043 L189.674,2.095 L176.828,58.815 C172.617,66.04 164.832,71.568 159.916,71.79 C155.497,71.984 150.543,69.934 150.204,62.47 C150.146,61.111 150.181,59.405 150.332,57.598 C161.012,55.76 175.485,47.188 174.883,33.381 C174.529,25.466 169.156,21.851 159.876,22.254 C139.289,23.176 134.291,48.668 134.937,63.037 C135.006,64.844 135.354,66.558 135.834,68.211 C134.41,69.734 132.949,70.793 130.672,71.041 C126.28,71.511 124.858,69.96 124.586,67.484 C124.468,66.35 124.559,65.096 124.765,63.816 L127.061,41.814 C127.192,40.893 127.086,40.002 126.993,39.099 C126.178,31.551 118.603,25.766 112.526,26.426 C107.572,26.953 102.683,30.227 98.435,34.093 L99.131,27.865 L82.921,29.624 L78.636,71.735 C76.157,74.818 73.524,77.574 70.928,78.096 C66.592,78.964 65.035,77.542 64.545,75.102 C64.328,73.99 64.3,72.727 64.388,71.434 L64.808,32.086 L48.716,35.315 L48.402,74.65 C48.375,76.838 48.513,78.653 48.873,80.435 C50.548,88.762 56.406,91.518 65.072,89.777 C69.389,88.923 73.929,84.187 77.909,78.902 L77.061,87.19 L93.275,85.445 L97.933,38.93 C100.13,37.1 102.066,36.095 104.77,35.802 C107.806,35.475 110.229,37.84 110.666,41.893 C110.765,42.784 110.757,43.811 110.65,44.843 L108.555,65.569 C108.334,67.766 108.303,69.587 108.5,71.389 C109.412,79.827 115.002,83.101 123.788,82.158 C128.907,81.6 133.5,76.918 137.356,71.974 C140.146,77.153 145.269,80.603 152.468,80.276 C161.448,79.881 168.817,75.208 174.542,68.9 L172.29,78.902 L188.597,79.102 L195.432,48.719 C197.82,47.168 199.879,46.278 202.714,46.319 C205.766,46.362 207.888,48.99 207.839,53.065 C207.821,53.973 207.702,54.987 207.458,56.002 L206.146,61.211 C205.553,63.346 205.304,65.388 205.283,67.195 C205.185,75.461 210.572,79.377 219.285,79.487 C223.528,79.545 228.272,76.125 232.662,71.983 C234.585,77.574 239.258,80.351 247.209,81.157 C258.256,82.264 271.377,72.887 276.05,51.382 C285.946,50.447 288.404,46.367 298.122,38 C296.988,51.555 300.018,58.69 299.345,65.344 C298.419,74.579 295.013,76.848 288.59,76.21 C282.602,75.599 280.209,73.433 280.524,70.274 C280.595,69.596 280.772,68.931 281.069,68.156 C282,70.313 283.727,71.284 285.534,71.461 C289.024,71.815 293.569,68.511 293.862,65.579 C294.348,60.737 293.321,57.45 289.375,57.052 C283.289,56.432 276.512,60.414 275.759,67.856 C274.877,76.538 277.703,83.541 289.321,84.706 C300.245,85.813 307.731,81.668 311.55,75.338 C314.194,73.486 316.803,71.67 319.163,70.054 L318.929,70.594 C318.115,72.517 317.512,74.47 317.175,76.255 C315.872,83.143 318.242,88.897 326.026,90.372 C329.817,91.09 334.832,91.359 339.749,82.367 C338.801,82.531 337.583,82.301 336.809,82.159 C333.8,81.584 333.224,79.75 333.667,77.411 C333.902,76.183 334.367,74.894 334.965,73.624 L348.391,41.589 L355.08,42.843 L356.811,38.56 L350.123,37.301 C354.13,27.688 357.234,20.437 357.234,20.437 M163.88,28.096 C167.264,27.941 168.011,31.874 168.117,34.253 C168.361,42.283 161.404,51.546 150.997,52.122 C152.895,41.38 157.544,28.366 163.88,28.096 M267.868,50.217 C265.405,61.012 260.48,71.444 253.609,70.748 C249.211,70.313 246.252,68.187 246.917,61.424 C247.834,52.401 254.659,29.862 265.25,30.945 C268.404,31.255 269.428,33.522 269.396,37.279 C266.224,38.093 263.974,41.394 263.642,44.663 C263.373,47.368 264.591,49.885 267.868,50.217" id="Shape"></path>
        </g>
    </g>
</svg>